<?xml version="1.0" standalone="no"?>
<!DOCTYPE svg PUBLIC "-//W3C//DTD SVG 20010904//EN"
 "http://www.w3.org/TR/2001/REC-SVG-20010904/DTD/svg10.dtd">
<svg version="1.0" xmlns="http://www.w3.org/2000/svg"
 width="310.000000pt" height="310.000000pt" viewBox="0 0 310.000000 310.000000"
 preserveAspectRatio="xMidYMid meet">
<metadata>
Created by potrace 1.14, written by Peter Selinger 2001-2017
</metadata>
<g transform="translate(0.000000,310.000000) scale(0.100000,-0.100000)"
fill="#000000" stroke="none">
<path d="M1508 1239 c-3 -8 7 -35 21 -61 l27 -47 28 46 c17 29 24 52 20 62 -6
13 -8 12 -11 -6 -4 -23 -45 -43 -50 -26 -2 6 -10 18 -17 28 -10 14 -14 15 -18
4z"/>
<path d="M1505 844 c-22 -9 -50 -18 -63 -21 -12 -3 -25 -9 -28 -14 -3 -5 -253
-9 -564 -9 -543 0 -560 -1 -570 -19 -13 -25 -13 -27 6 -45 14 -14 75 -16 529
-16 501 0 515 0 525 -20 6 -11 32 -32 58 -47 43 -26 55 -28 152 -28 93 0 110
3 148 24 23 14 49 35 57 48 l15 23 511 0 c333 0 517 4 530 10 21 12 25 40 7
58 -9 9 -145 12 -553 12 -522 0 -542 1 -595 21 -60 22 -112 39 -120 39 -3 -1
-23 -8 -45 -16z"/>
</g>
</svg>
